<svg xmlns="http://www.w3.org/2000/svg" xmlns:xlink="http://www.w3.org/1999/xlink" viewBox="0 0 58.72 89.17"><defs><style>.cls-1{fill:url(#linear-gradient);}.cls-2{fill:url(#linear-gradient-2);}.cls-3{fill:url(#linear-gradient-3);}.cls-4{fill:url(#linear-gradient-4);}.cls-5{fill:url(#linear-gradient-5);}</style><linearGradient id="linear-gradient" x1="3.09" y1="34.67" x2="32.16" y2="34.67" gradientTransform="translate(-5.2 -18.06) rotate(-6.08)" gradientUnits="userSpaceOnUse"><stop offset="0" stop-color="#c98e78"/><stop offset="1" stop-color="#f8dab4"/></linearGradient><linearGradient id="linear-gradient-2" x1="-3.81" y1="58.08" x2="41.98" y2="58.08" gradientTransform="translate(-5.2 -18.06) rotate(-6.08)" gradientUnits="userSpaceOnUse"><stop offset="0" stop-color="#3e5866"/><stop offset="1" stop-color="#508a8b"/></linearGradient><linearGradient id="linear-gradient-3" x1="3.09" y1="42.82" x2="32.16" y2="42.82" xlink:href="#linear-gradient"/><linearGradient id="linear-gradient-4" x1="-3.81" y1="42.82" x2="41.98" y2="42.82" xlink:href="#linear-gradient-2"/><linearGradient id="linear-gradient-5" x1="-5.26" y1="81.38" x2="56.15" y2="81.38" gradientTransform="translate(-5.2 -18.06) rotate(-6.08)" gradientUnits="userSpaceOnUse"><stop offset="0" stop-color="#02202a"/><stop offset="1" stop-color="#206969"/></linearGradient></defs><title>Asset 12</title><g id="Layer_2" data-name="Layer 2"><g id="Layer_1-2" data-name="Layer 1"><path class="cls-1" d="M18.32,1.21A3.72,3.72,0,0,0,13.08,1L2.39,10.69a3.42,3.42,0,0,0-.23,4.85L14.66,29.3l16-14.53Z"/><path class="cls-2" d="M2.2,47.7,13.5,60.12l32-29.06L30.64,14.76h0l-16,14.53h0l-12.1,11A5.24,5.24,0,0,0,2.2,47.7Z"/><polygon class="cls-3" points="30.64 14.77 30.64 14.77 14.66 29.3 14.66 29.3 30.64 14.77"/><polygon class="cls-4" points="30.64 14.77 30.64 14.77 14.66 29.3 14.66 29.3 30.64 14.77"/><path class="cls-5" d="M57.74,44.57,45.46,31.06,2,70.61a6,6,0,0,0-.4,8.5l7.86,8.65a4.31,4.31,0,0,0,6.09.29l42-38.16A3.76,3.76,0,0,0,57.74,44.57Z"/></g></g></svg>