<svg xmlns="http://www.w3.org/2000/svg" xmlns:xlink="http://www.w3.org/1999/xlink" viewBox="0 0 134.94 76.25"><defs><style>.cls-1{fill:#338594;}.cls-2{fill:#066c75;}.cls-3{fill:#034359;}.cls-4{fill:url(#linear-gradient);}.cls-5{fill:url(#linear-gradient-2);}.cls-6{fill:url(#linear-gradient-3);}.cls-7{fill:url(#linear-gradient-4);}.cls-8{fill:url(#linear-gradient-5);}</style><linearGradient id="linear-gradient" x1="9.65" y1="31.97" x2="34.51" y2="31.97" gradientTransform="translate(-11.67 -17.02) rotate(-6.08)" gradientUnits="userSpaceOnUse"><stop offset="0" stop-color="#c98e78"/><stop offset="1" stop-color="#f8dab4"/></linearGradient><linearGradient id="linear-gradient-2" x1="3.76" y1="52" x2="42.91" y2="52" gradientTransform="translate(-11.67 -17.02) rotate(-6.08)" gradientUnits="userSpaceOnUse"><stop offset="0" stop-color="#3e5866"/><stop offset="1" stop-color="#508a8b"/></linearGradient><linearGradient id="linear-gradient-3" x1="9.65" y1="38.94" x2="34.51" y2="38.94" xlink:href="#linear-gradient"/><linearGradient id="linear-gradient-4" x1="3.76" y1="38.94" x2="42.91" y2="38.94" xlink:href="#linear-gradient-2"/><linearGradient id="linear-gradient-5" x1="2.52" y1="71.92" x2="55.03" y2="71.92" gradientTransform="translate(-11.67 -17.02) rotate(-6.08)" gradientUnits="userSpaceOnUse"><stop offset="0" stop-color="#02202a"/><stop offset="1" stop-color="#206969"/></linearGradient></defs><title>Asset 13</title><g id="Layer_2" data-name="Layer 2"><g id="Layer_1-2" data-name="Layer 1"><path class="cls-1" d="M68.19,10.53H63.8V24.05H60.6V10.53H56.23V7.68h12Z"/><path class="cls-1" d="M81.46,24.05H75.67a6.1,6.1,0,0,1-3.88-.95,4.28,4.28,0,0,1-1.11-3.37v-12H81.46v2.85H73.87v3.84h5.32L79,17.22H73.87V19.5a1.67,1.67,0,0,0,.44,1.33,2.5,2.5,0,0,0,1.59.37h5.56Z"/><path class="cls-1" d="M97.36,7.68V22.4a2,2,0,0,1-.46,1.3,1.39,1.39,0,0,1-1.08.54,3,3,0,0,1-2.6-1.84l-5.66-8.86V24.05h-3.2V7.68h3.08l6.72,10.71V7.68Z"/><path class="cls-2" d="M70.31,31.68V46.4a1.93,1.93,0,0,1-.46,1.3,1.39,1.39,0,0,1-1.08.54,3,3,0,0,1-2.6-1.84l-5.66-8.86V48.05h-3.2V31.68H60.4L67.11,42.4V31.68Z"/><path class="cls-2" d="M76.82,48.05h-3.2V31.68h3.2Z"/><path class="cls-2" d="M93.4,31.68V46.4a1.93,1.93,0,0,1-.46,1.3,1.38,1.38,0,0,1-1.08.54,3,3,0,0,1-2.6-1.84L83.6,37.54V48.05H80.41V31.68h3.08L90.2,42.4V31.68Z"/><path class="cls-2" d="M107.5,48.05h-5.8a6,6,0,0,1-3.87-.95,4.28,4.28,0,0,1-1.12-3.37v-12H107.5v2.85H99.91v3.84h5.31L105,41.22H99.91V43.5a1.67,1.67,0,0,0,.44,1.33,2.49,2.49,0,0,0,1.58.37h5.57Z"/><path class="cls-2" d="M121.28,34.53h-4.4V48.05h-3.19V34.53h-4.37V31.68h12Z"/><path class="cls-2" d="M134.94,31.68,130,41.34v6.71h-3.18V41.34l-4.92-9.66h3.47l3.06,6.6,3-6.6Z"/><path class="cls-3" d="M68.33,57.92H62.56a2,2,0,0,0-1.42.39,1.9,1.9,0,0,0-.4,1.36V62h6l-.23,2.85H60.74v6.65H57.55v-13a3.46,3.46,0,0,1,.79-2.58,3.88,3.88,0,0,1,2.72-.76h7.27Z"/><path class="cls-3" d="M74.31,71.45h-3.2V55.07h3.2Z"/><path class="cls-3" d="M89.52,55.07,84.36,70.53a1.47,1.47,0,0,1-1.47,1,1.52,1.52,0,0,1-1.52-1L76.29,55.07H79.6l3.29,10.67,3.29-10.67Z"/><path class="cls-3" d="M102.28,71.45h-5.8a6,6,0,0,1-3.87-1,4.23,4.23,0,0,1-1.12-3.37V55.07h10.79v2.85H94.69v3.84H100l-.23,2.86H94.69v2.27a1.7,1.7,0,0,0,.44,1.34,2.56,2.56,0,0,0,1.58.36h5.57Z"/><path class="cls-4" d="M15.66,1A3.16,3.16,0,0,0,11.19.82L2,9.14a2.94,2.94,0,0,0-.2,4.15l10.7,11.76L26.2,12.63Z"/><path class="cls-5" d="M1.88,40.79l9.66,10.62L38.87,26.56,26.2,12.63h0L12.54,25.05h0L2.19,34.46A4.48,4.48,0,0,0,1.88,40.79Z"/><polygon class="cls-6" points="26.2 12.63 26.2 12.63 12.54 25.05 12.54 25.05 26.2 12.63"/><polygon class="cls-7" points="26.2 12.63 26.2 12.63 12.54 25.05 12.54 25.05 26.2 12.63"/><path class="cls-8" d="M49.38,38.11,38.87,26.56,1.68,60.37a5.15,5.15,0,0,0-.34,7.27L8.07,75a3.67,3.67,0,0,0,5.2.25L49.16,42.66A3.22,3.22,0,0,0,49.38,38.11Z"/></g></g></svg>